<svg xmlns="http://www.w3.org/2000/svg" viewBox="0 0 200 150">
  <defs>
    <linearGradient id="g" x1="0" y1="0" x2="0" y2="1">
      <stop offset="0%" stop-color="#E8D8B0"/>
      <stop offset="40%" stop-color="#D8C090"/>
      <stop offset="100%" stop-color="#C4A870"/>
    </linearGradient>
  </defs>
  <rect width="200" height="150" fill="url(#g)"/>
  <path d="M0,16 C60,14 140,18 200,15" stroke="#A88848" stroke-width="1" fill="none" opacity="0.42"/>
  <path d="M0,33 C50,31 150,35 200,32" stroke="#B89858" stroke-width="0.7" fill="none" opacity="0.35"/>
  <path d="M0,52 C70,49 130,55 200,51" stroke="#A88848" stroke-width="1.6" fill="none" opacity="0.42"/>
  <path d="M0,68 C55,66 145,70 200,67" stroke="#B89858" stroke-width="0.8" fill="none" opacity="0.35"/>
  <path d="M0,86 C60,84 140,88 200,85" stroke="#A88848" stroke-width="1.3" fill="none" opacity="0.42"/>
  <path d="M0,103 C70,101 130,105 200,102" stroke="#B89858" stroke-width="0.8" fill="none" opacity="0.35"/>
  <path d="M0,120 C50,118 150,122 200,119" stroke="#A88848" stroke-width="1.5" fill="none" opacity="0.42"/>
  <path d="M0,137 C65,135 135,139 200,136" stroke="#B89858" stroke-width="0.7" fill="none" opacity="0.33"/>
  <!-- ash wavy grain -->
  <path d="M0,75 C30,68 60,82 100,74 S170,80 200,73" stroke="#A88848" stroke-width="0.6" fill="none" opacity="0.2"/>
</svg>
