<svg xmlns="http://www.w3.org/2000/svg" viewBox="0 0 200 150">
  <defs>
    <linearGradient id="g" x1="0" y1="0" x2="0" y2="1">
      <stop offset="0%" stop-color="#2C2420"/>
      <stop offset="40%" stop-color="#221C18"/>
      <stop offset="100%" stop-color="#181210"/>
    </linearGradient>
  </defs>
  <rect width="200" height="150" fill="url(#g)"/>
  <path d="M0,18 C60,16 140,20 200,17" stroke="#3A2A22" stroke-width="1.2" fill="none" opacity="0.7"/>
  <path d="M0,36 C50,34 150,38 200,35" stroke="#4A3428" stroke-width="0.8" fill="none" opacity="0.6"/>
  <path d="M0,56 C70,53 130,59 200,55" stroke="#3A2A22" stroke-width="1.8" fill="none" opacity="0.65"/>
  <path d="M0,73 C55,71 145,75 200,72" stroke="#4A3428" stroke-width="0.9" fill="none" opacity="0.6"/>
  <path d="M0,92 C60,90 140,94 200,91" stroke="#3A2A22" stroke-width="1.5" fill="none" opacity="0.65"/>
  <path d="M0,110 C70,108 130,112 200,109" stroke="#4A3428" stroke-width="0.9" fill="none" opacity="0.6"/>
  <path d="M0,128 C50,126 150,130 200,127" stroke="#3A2A22" stroke-width="1.3" fill="none" opacity="0.65"/>
  <path d="M0,144 C65,142 135,146 200,143" stroke="#4A3428" stroke-width="0.7" fill="none" opacity="0.55"/>
  <!-- wenge distinctive fine pores -->
  <line x1="20" y1="0" x2="24" y2="150" stroke="#4A3428" stroke-width="1" opacity="0.3"/>
  <line x1="55" y1="0" x2="59" y2="150" stroke="#4A3428" stroke-width="1" opacity="0.25"/>
  <line x1="95" y1="0" x2="99" y2="150" stroke="#4A3428" stroke-width="1" opacity="0.28"/>
  <line x1="135" y1="0" x2="139" y2="150" stroke="#4A3428" stroke-width="1" opacity="0.25"/>
  <line x1="170" y1="0" x2="174" y2="150" stroke="#4A3428" stroke-width="1" opacity="0.27"/>
</svg>
